# xmcd
#
# Track frame offsets:
#  150
#  18754
#  37554
#  52961
#  71959
#  88400
#  103566
#  126580
#  144443
#  164728
#  185428
#
# Disc length: 2599 seconds
#
# Revision: 0
# Processed by: cddbd v1.5.1PL2 Copyright (c) Steve Scherf et al.
# Submitted via: Collectorz.com_Music_Collector 6.9
#
DISCID=970a250b
DTITLE=The Band - Hit List
DYEAR=1900
DGENRE=Folk-Rock
TTITLE0=Last Train To Memphis
TTITLE1=Don't Wait
TTITLE2=High Cotton
TTITLE3=Book Faded Brown
TTITLE4=White Cadillac
TTITLE5=Bound By Love
TTITLE6=Spirit of the Dance
TTITLE7=If I Should Fail
TTITLE8=Kentucky Downpour
TTITLE9=You See Me
TTITLE10=French Girls
EXTD=
EXTT0=
EXTT1=
EXTT2=
EXTT3=
EXTT4=
EXTT5=
EXTT6=
EXTT7=
EXTT8=
EXTT9=
EXTT10=
PLAYORDER=
